<svg viewBox="0 0 800 500" preserveAspectRatio="none" xmlns="http://www.w3.org/2000/svg" xmlns:xlink="http://www.w3.org/1999/xlink" width="100%" id="blobSvg">
  <g transform="translate(173.0908317565918, -28.594650268554688)">
    <defs>
      <linearGradient id="gradient" x1="0%" y1="0%" x2="0%" y2="100%">
        <stop offset="0%" style="stop-color: rgb(38, 151, 158);"></stop>
        <stop offset="100%" style="stop-color: rgb(51, 98, 152);"></stop>
      </linearGradient>
    </defs>
    <path class="blob" d="M427.5,294Q433,338,402,370Q371,402,332,420.5Q293,439,245.5,459.5Q198,480,149.5,458.5Q101,437,107,376.5Q113,316,58,283Q3,250,33,205Q63,160,107.5,143.5Q152,127,183,109.5Q214,92,251,88.5Q288,85,325.5,96.5Q363,108,400.5,134Q438,160,430,205Q422,250,427.5,294Z" fill="url(#gradient)"></path>
  </g>
</svg>